<svg xmlns="http://www.w3.org/2000/svg" viewBox="0 0 48 48">
  <rect width="48" height="48" rx="9" fill="#212870"/>
  <g transform="translate(3.5, 14.2)">
    <path d="M38.287,0H2.794A2.8,2.8,0,0,0,0,2.794V16.85a2.8,2.8,0,0,0,2.794,2.794H38.287a2.8,2.8,0,0,0,2.794-2.794V2.794A2.8,2.8,0,0,0,38.287,0m-23.3,17.044H3.451V13.987h.932V5.6H3.451V2.545h7.863V5.6H9.6v8.386h1.677V12.273h3.708v4.771ZM26.7,7.056H23.5V5.6H22.3v8.386h1.3v3.056H15.782V13.988h1.3V5.6H15.893V7.055h-3.2V2.546H26.7ZM39,17.044H27.465V13.987H28.4V5.6h-.932V2.545h7.863V5.6H33.614v8.386h1.677V12.273H39v4.771Z" fill="#fff"/>
  </g>
</svg>
