<svg xmlns="http://www.w3.org/2000/svg" width="59" height="25" viewBox="0 0 59 25">
  <g id="LTL_TV_logo_white">
    <g transform="translate(-0.193 2.729)">
      <g>
        <path d="M38.287,0H2.794A2.8,2.8,0,0,0,0,2.794V16.85a2.8,2.8,0,0,0,2.794,2.794H38.287a2.8,2.8,0,0,0,2.794-2.794V2.794A2.8,2.8,0,0,0,38.287,0m-23.3,17.044H3.451V13.987h.932V5.6H3.451V2.545h7.863V5.6H9.6v8.386h1.677V12.273h3.708v4.771ZM26.7,7.056H23.5V5.6H22.3v8.386h1.3v3.056H15.782V13.988h1.3V5.6H15.893V7.055h-3.2V2.546H26.7ZM39,17.044H27.465V13.987H28.4V5.6h-.932V2.545h7.863V5.6H33.614v8.386h1.677V12.273H39v4.771Z" fill="#fff"/>
        <path d="M75.294,4.352V7.539h2.244l.646,1.537H75.3v5.985c0,1.376.39,2.156,1.514,2.156a4.481,4.481,0,0,0,1.17-.138l.091,1.514a4.946,4.946,0,0,1-1.788.275A2.8,2.8,0,0,1,74.1,18.02a4.113,4.113,0,0,1-.78-2.889V9.076H71.6V7.539h1.72V4.879l1.972-.528Z" transform="translate(-29.517 -1.794)" fill="#fff"/>
        <path d="M84.994,9.762l2.219,6.353a29.139,29.139,0,0,1,.911,2.9h.07c.256-.935.584-1.869.958-2.9l2.2-6.353H93.5l-4.082,10.4a1.431,1.431,0,0,1-2.67-.014L82.8,9.763h2.2Z" transform="translate(-34.132 -4.024)" fill="#fff"/>
      </g>
    </g>
  </g>
</svg>
