<svg xmlns="http://www.w3.org/2000/svg" width="116.772" height="30.481" viewBox="0 0 116.772 30.481">
  <g transform="translate(42.784 11.168)">
    <g transform="translate(-42.784 -11.168)">
      <text transform="translate(26.744 10)" fill="#e85521" font-size="10" font-family="Montserrat, sans-serif" font-weight="300" letter-spacing="-0.073em"><tspan x="0" y="0">DANS LES</tspan></text>
      <g transform="translate(0 12.342)">
        <path d="M8.539,11.192a4.317,4.317,0,0,1,1.9,1.586A4.353,4.353,0,0,1,11.11,15.2a4.151,4.151,0,0,1-2.57,3.988,7.046,7.046,0,0,1-2.905.554H3.487v3.223H0V10.638H5.634A7.046,7.046,0,0,1,8.539,11.192Zm-1.5,5.335A1.651,1.651,0,0,0,7.589,15.2a1.684,1.684,0,0,0-.546-1.339,2.408,2.408,0,0,0-1.62-.475H3.487v3.61H5.423A2.436,2.436,0,0,0,7.043,16.527Z" fill="#e85521"/>
        <path d="M31.266,13.332v2.712h5.44v2.694h-5.44v4.226H27.779V10.638h9.666v2.694Z" transform="translate(8.688 -7.702)" fill="#e85521"/>
        <path d="M38.184,22.441a6.3,6.3,0,0,1,0-11.162,7.863,7.863,0,0,1,7.026,0,6.3,6.3,0,0,1,0,11.162,7.874,7.874,0,0,1-7.026,0Zm5.2-2.5a3.149,3.149,0,0,0,1.2-1.241,4.058,4.058,0,0,0,0-3.68,3.161,3.161,0,0,0-1.2-1.242,3.468,3.468,0,0,0-3.38,0,3.179,3.179,0,0,0-1.2,1.242,4.068,4.068,0,0,0,0,3.68,3.166,3.166,0,0,0,1.2,1.241,3.459,3.459,0,0,0,3.38,0Z" transform="translate(10.899 -7.761)" fill="#e85521"/>
        <path d="M57.425,10.638V22.963H54.554L49.114,16.4v6.568H45.7V10.638h2.87l5.441,6.568V10.638Z" transform="translate(14.292 -7.702)" fill="#e85521"/>
        <path d="M55.529,10.638h5.829a8.15,8.15,0,0,1,3.592.757,5.714,5.714,0,0,1,2.43,2.148,6.054,6.054,0,0,1,.862,3.257,6.059,6.059,0,0,1-.862,3.258,5.714,5.714,0,0,1-2.43,2.148,8.168,8.168,0,0,1-3.592.757H55.529Zm5.687,9.542a3.572,3.572,0,0,0,2.544-.9,3.23,3.23,0,0,0,.96-2.482,3.232,3.232,0,0,0-.96-2.482,3.572,3.572,0,0,0-2.544-.9h-2.2V20.18Z" transform="translate(17.367 -7.702)" fill="#e85521"/>
        <path d="M74.705,20.258v2.765h-9.6V20.839l4.613-4.315a4.371,4.371,0,0,0,.9-1.082,1.985,1.985,0,0,0,.228-.907,1.146,1.146,0,0,0-.4-.933,1.812,1.812,0,0,0-1.18-.335A2.624,2.624,0,0,0,68,13.576a2.519,2.519,0,0,0-.941.889L64.475,13.02A5.075,5.075,0,0,1,66.5,11.137a6.536,6.536,0,0,1,3.082-.687,6.331,6.331,0,0,1,2.49.458,3.867,3.867,0,0,1,1.691,1.311,3.327,3.327,0,0,1,.608,1.981,4.283,4.283,0,0,1-.432,1.893,7.276,7.276,0,0,1-1.663,2.016l-2.325,2.148Z" transform="translate(20.165 -7.761)" fill="#e85521"/>
        <path d="M77.938,19.688h-1.9v3.275H72.549V10.638h5.634a7.041,7.041,0,0,1,2.905.554,4.481,4.481,0,0,1,1.946,6.339,4.225,4.225,0,0,1-1.787,1.558l2.658,3.874H80.173Zm1.654-5.829a2.406,2.406,0,0,0-1.62-.475H76.036v3.61h1.936a2.434,2.434,0,0,0,1.62-.467,1.651,1.651,0,0,0,.546-1.329A1.684,1.684,0,0,0,79.592,13.86Z" transform="translate(22.69 -7.702)" fill="#e85521"/>
        <path d="M83.127,22.9a7.144,7.144,0,0,1-2.289-.986l1.145-2.572a7.8,7.8,0,0,0,4.067,1.216q2.007,0,2.007-1a.829.829,0,0,0-.572-.782,10.6,10.6,0,0,0-1.839-.538,17.429,17.429,0,0,1-2.325-.642,3.9,3.9,0,0,1-1.6-1.1,2.973,2.973,0,0,1-.67-2.043,3.534,3.534,0,0,1,.616-2.033,4.115,4.115,0,0,1,1.84-1.435,7.555,7.555,0,0,1,3-.529,10.633,10.633,0,0,1,2.394.273,7.354,7.354,0,0,1,2.077.8l-1.074,2.589a7.17,7.17,0,0,0-3.416-.95,2.869,2.869,0,0,0-1.514.307.923.923,0,0,0-.475.8.794.794,0,0,0,.563.739,10.174,10.174,0,0,0,1.813.511,16.876,16.876,0,0,1,2.334.643,4.021,4.021,0,0,1,1.6,1.091,2.918,2.918,0,0,1,.677,2.033,3.467,3.467,0,0,1-.616,2.007,4.2,4.2,0,0,1-1.848,1.435,7.472,7.472,0,0,1-2.993.537A11.437,11.437,0,0,1,83.127,22.9Z" transform="translate(25.283 -7.761)" fill="#e85521"/>
        <g transform="translate(10.318)">
          <path d="M9.3,23.3c.148-.575-.545-1.053-.479-1.465a2.691,2.691,0,0,0,.05-1.629,5.936,5.936,0,0,1,.26-2.5l.02-1.142a13.544,13.544,0,0,1,2.087-3.924,5.391,5.391,0,0,1,3.307-1.97c-.016-.5,1.16-.049,1.16-.049s.175-.287.3-.253.138.273.353.18c.655-.093,1.651-1.414,1.651-1.414a2.424,2.424,0,0,1,2.225-.717,2.106,2.106,0,0,1,2.02,1.331l.257.974v1.254l.32.637-.372.137.035.564-.213-.245h-.2l-.407.491s.125-.777-.022-.946l-.651.361a.514.514,0,0,1-.639.029s-.521,1.1-.746.91c-.135-.369-.284-.264-.284-.264s0,.163-.08.2S19,13.746,19,13.746l-.176.106s-.234-.2-.379-.056-.524.4-.73-.037-.345-.932-.781-.706a.971.971,0,0,1,.083.949,2.808,2.808,0,0,0-.083,1.415l-.3,1.318-.116,1.088a1.135,1.135,0,0,0,.91,1.277c.3.005.651.272,1.184.095a7.536,7.536,0,0,0,.992-.827,1.892,1.892,0,0,1,.348-.318l.308-.088c.1-.06.131-.088.352-.221l.131-.043s.264-.045.358.125c.062.11-.038.245-.1.291s-.7.495-.7.495a1.615,1.615,0,0,0,1.225-.062c.693-.344.815-.32.908-.2.071.095.011.2-.083.293a1.645,1.645,0,0,1-.4.252c-.154.076-.853.3-.853.3l-.533.088L21.1,19.2l.987-.26a1.014,1.014,0,0,0,.32-.14c.139-.093.353-.2.449-.085.176.219-.264.483-.264.483s-.308.176-.524.3a5.162,5.162,0,0,1-.969.238l.8-.088s.57-.139.605.038a.264.264,0,0,1-.109.235.7.7,0,0,1-.408.171l-.8.089s.8-.089.834.121c.022.147-.643.147-1.277.234a1.86,1.86,0,0,1-.621,0,1.073,1.073,0,0,0-.356-.088,4.885,4.885,0,0,0-.977.177s2.124.848,1.259,2.429" fill="#e85521"/>
        </g>
        <path d="M5.522,12.818a7.412,7.412,0,0,1-3.514-.827A6.3,6.3,0,0,1,0,10.334c.158-.284.731-.374.737-.375.19-.085.354-.153.512-.219A4.577,4.577,0,0,0,2.92,8.689a3.1,3.1,0,0,0,.912.8,3.309,3.309,0,0,0,1.691.442A3.315,3.315,0,0,0,7.213,9.49a3.173,3.173,0,0,0,1.2-1.241,3.779,3.779,0,0,0,.44-1.84,3.779,3.779,0,0,0-.44-1.84,3.2,3.2,0,0,0-1.2-1.242,3.326,3.326,0,0,0-1.691-.44,3.319,3.319,0,0,0-1.691.44,3.171,3.171,0,0,0-.443.312l0-.059L2.375.647A7.522,7.522,0,0,1,5.522,0,7.4,7.4,0,0,1,9.034.828,6.167,6.167,0,0,1,12.37,6.41a6.17,6.17,0,0,1-3.335,5.581A7.409,7.409,0,0,1,5.522,12.818Z" transform="translate(23.551 2.689)" fill="#e85521"/>
      </g>
    </g>
  </g>
</svg>
