<svg id="PC_logo" xmlns="http://www.w3.org/2000/svg" width="74.325" height="25.552" viewBox="0 0 74.325 25.552">
  <g transform="translate(0 0)">
    <g transform="translate(19.501 0.306)">
      <path d="M151.694,3.751a2.491,2.491,0,0,1,1.533,2.39,2.565,2.565,0,0,1-.4,1.439,2.591,2.591,0,0,1-1.134.94,4.192,4.192,0,0,1-1.733.331H148.68v1.923H146.6V3.42h3.362A4.187,4.187,0,0,1,151.694,3.751ZM150.8,6.935a.985.985,0,0,0,.326-.793,1,1,0,0,0-.326-.8,1.437,1.437,0,0,0-.967-.283h-1.156V7.214h1.156A1.461,1.461,0,0,0,150.8,6.935Z" transform="translate(-146.6 -3.275)" fill="#3d53ea"/>
      <path d="M200.8,8.82H199.67v1.953h-2.08V3.42h3.362a4.187,4.187,0,0,1,1.733.331,2.491,2.491,0,0,1,1.533,2.39,2.445,2.445,0,0,1-1.439,2.322l1.586,2.311h-2.227Zm.988-3.477a1.437,1.437,0,0,0-.967-.283H199.67V7.212h1.156a1.461,1.461,0,0,0,.967-.278.985.985,0,0,0,.326-.793,1,1,0,0,0-.326-.8Z" transform="translate(-190.81 -3.275)" fill="#3d53ea"/>
      <path d="M254.734,9.166v1.608h-5.9V3.42H254.6V5.028h-3.709V6.267h3.267V7.821h-3.267V9.166h3.844Z" transform="translate(-235.236 -3.275)" fill="#3d53ea"/>
      <path d="M301.317,3.42v7.353H299.6l-3.246-3.919v3.919H294.32V3.42h1.713l3.246,3.919V3.42Z" transform="translate(-274.677 -3.275)" fill="#3d53ea"/>
      <path d="M348.86,3.42h3.477a4.86,4.86,0,0,1,2.144.452,3.4,3.4,0,0,1,1.449,1.282,3.61,3.61,0,0,1,.515,1.943,3.61,3.61,0,0,1-.515,1.943,3.405,3.405,0,0,1-1.449,1.282,4.86,4.86,0,0,1-2.144.452H348.86Zm3.393,5.694a2.133,2.133,0,0,0,1.519-.536,1.93,1.93,0,0,0,.572-1.481,1.935,1.935,0,0,0-.572-1.481,2.131,2.131,0,0,0-1.519-.536h-1.312V9.113h1.312Z" transform="translate(-321.965 -3.275)" fill="#3d53ea"/>
      <path d="M405.936,9.755a4.285,4.285,0,0,1-1.366-.588l.682-1.533a4.406,4.406,0,0,0,1.145.525,4.36,4.36,0,0,0,1.282.2q1.2,0,1.2-.6a.5.5,0,0,0-.342-.468,6.265,6.265,0,0,0-1.1-.32,10.732,10.732,0,0,1-1.387-.383,2.332,2.332,0,0,1-.956-.657,1.773,1.773,0,0,1-.4-1.218,2.11,2.11,0,0,1,.367-1.213,2.455,2.455,0,0,1,1.1-.856,4.518,4.518,0,0,1,1.791-.315,6.366,6.366,0,0,1,1.428.162,4.375,4.375,0,0,1,1.239.477l-.641,1.544a4.291,4.291,0,0,0-2.038-.568,1.708,1.708,0,0,0-.9.184.551.551,0,0,0-.283.477.475.475,0,0,0,.336.441,6.035,6.035,0,0,0,1.082.3,10.423,10.423,0,0,1,1.392.383,2.413,2.413,0,0,1,.956.652,1.738,1.738,0,0,1,.4,1.213,2.073,2.073,0,0,1-.367,1.2,2.507,2.507,0,0,1-1.1.856,4.453,4.453,0,0,1-1.786.32,6.765,6.765,0,0,1-1.733-.221Z" transform="translate(-370.267 -2.33)" fill="#3d53ea"/>
    </g>
    <g transform="translate(0)">
      <path d="M74.174,12.458a.324.324,0,0,0-.223-.1.335.335,0,0,0-.231.106,16.363,16.363,0,0,1-1.758,1.56,10.131,10.131,0,0,1-1.794,1.049,4.92,4.92,0,0,1-2.081.465c-.912,0-1.407-.323-1.517-.983a1.663,1.663,0,0,1,.07-.765,3.839,3.839,0,0,1,.309-.7,4.753,4.753,0,0,0,.678.182,3.764,3.764,0,0,0,.674.065,2.236,2.236,0,0,0,.879-.152,1.537,1.537,0,0,0,.565-.4l.007-.007a.93.93,0,0,0,.1-1.162,1.193,1.193,0,0,0-1.085-.5,2.427,2.427,0,0,0-.626.1,2.272,2.272,0,0,0-.925.512,3.986,3.986,0,0,0-.7.823,10.8,10.8,0,0,1-2.06,1.8c-.745.509-1.529,1.007-2.338,1.481l.394-1.629c.157-.645.3-1.238.418-1.761l0-.019v-.053a.279.279,0,0,0-.011-.211A.346.346,0,0,0,62.7,12l-.024-.008H62.65a.319.319,0,0,0-.293.14,1.41,1.41,0,0,0-.911-.263,2.325,2.325,0,0,0-1.827.731,2.661,2.661,0,0,0-.7,1.576,1.692,1.692,0,0,0,.275,1.1,1.212,1.212,0,0,0,.876.509h.2a1.753,1.753,0,0,0,1.029-.32,3.342,3.342,0,0,0,.3-.239c-.021.085-.04.17-.057.254a6.8,6.8,0,0,1-.226.8,3.065,3.065,0,0,1-.372.223c-.148.074-.3.153-.437.234-.866.473-1.7.959-2.491,1.439-.445.271-.866.553-1.258.839.275-.451.535-.911.769-1.383a17.9,17.9,0,0,0,1.227-3.52c.1-.392.2-.787.286-1.182a3.83,3.83,0,0,0,.1-1.384,2.049,2.049,0,0,0-1.5-1.645,2.433,2.433,0,0,0-.733-.1,3.729,3.729,0,0,0-3.275-2.175,3.8,3.8,0,0,0-2.121.594,12.818,12.818,0,0,0-1.629,1.334c-.129.114-.261.227-.395.336-.031.023-.059.047-.089.07l-.008.007a.009.009,0,0,0-.007.005h0l-.013.011c-.011.007-.02.016-.031.023-.078.06-.158.117-.238.174a8.425,8.425,0,0,1-.907.553c-.16.084-.322.164-.485.237l-.12.052-.008,0-.013.005s0,0-.005,0h-.005l-.039.016c-.081.033-.164.065-.243.094a8.956,8.956,0,0,1-1.017.306,3.707,3.707,0,0,0-1.782.75,4,4,0,0,0-.8,1.917c-.1.328-.21.65-.336.968-.016.04-.033.08-.049.118-.007.019-.015.035-.023.053v0a.008.008,0,0,1,0,.005.062.062,0,0,1,0,.012c-.039.082-.073.166-.11.247-.072.157-.148.312-.226.468-.161.318-.336.629-.527.931-.093.149-.191.3-.293.439-.045.065-.09.128-.138.191-.024.035-.051.068-.074.1-.008.011-.016.02-.023.031h0a0,0,0,0,1,0,0s0,0,0,0,0,0,0,0l0,0,0,.005c-.011.012-.021.027-.023.028-.1.128-.206.253-.314.375a.364.364,0,0,0-.078.14c-.033.047-.066.092-.1.138a7.123,7.123,0,0,1-.727.912,2.936,2.936,0,0,1-1.323.984c-.032,0-.06.005-.086.005a.254.254,0,0,1-.07-.007.15.15,0,0,1-.056-.056,1.1,1.1,0,0,1-.056-.75,8.88,8.88,0,0,1,.334-1.311c.157-.48.339-.973.539-1.468s.379-.912.531-1.254l.005-.009,0-.011a2.219,2.219,0,0,1,.09-.253c.035-.076.066-.142.1-.2l.007-.011,0-.012a.814.814,0,0,0-.035-.707.717.717,0,0,0-.541-.408,4.127,4.127,0,0,1-.722-.2,2.78,2.78,0,0,1-.613-.319,4.451,4.451,0,0,0,.529-1.025,2.822,2.822,0,0,0,.161-.884,1.5,1.5,0,0,0-.114-.626,1.65,1.65,0,0,0-.184-.323,1.113,1.113,0,0,0-.918-.476c-.041,0-.082,0-.122.007a1.064,1.064,0,0,0-.956.65,2.184,2.184,0,0,0-.18,1.1,2.36,2.36,0,0,0,.368,1.09,3.7,3.7,0,0,0,.552.65c-.367.541-.71,1.017-1.025,1.419-.344.437-.731.918-1.149,1.423a19.2,19.2,0,0,1-1.311,1.431A9.886,9.886,0,0,1,33.03,18.85a2.621,2.621,0,0,1-1.2.5h-.011a.3.3,0,0,1-.186-.105,1.507,1.507,0,0,1-.23-.6,4.988,4.988,0,0,1-.08-1.016,9.436,9.436,0,0,1,.106-1.293c.068-.464.161-.952.278-1.452.031-.105.061-.217.092-.334s.061-.227.092-.33a.3.3,0,0,0-.215-.395l-.029-.008-.029,0c-.238.023-.316.133-.339.223s-.062.217-.093.335-.061.227-.09.33l-.008.028v.011c-.008.033-.039.134-.146.451A7.763,7.763,0,0,1,30.5,16.21a5.16,5.16,0,0,1-.686,1.029,1.252,1.252,0,0,1-.839.485.305.305,0,0,1-.048,0,.34.34,0,0,1-.266-.117,1.075,1.075,0,0,1-.122-.533,4.18,4.18,0,0,1,.086-.846,7.138,7.138,0,0,1,.27-1,9.259,9.259,0,0,1,.41-1l.005-.011,0-.012a.376.376,0,0,0,.015-.168h0a.126.126,0,0,0-.005-.035.287.287,0,0,0-.164-.191A.3.3,0,0,0,29,13.776a.393.393,0,0,0-.055,0,.271.271,0,0,0-.239.156A4.308,4.308,0,0,1,27.024,15.6a5.464,5.464,0,0,1-2.094.666l-.259.025a6.983,6.983,0,0,0,.253-.8,2.916,2.916,0,0,0,.088-.975,1.589,1.589,0,0,0-.472-1.015l-.005-.005-.005,0a1.477,1.477,0,0,0-.968-.316,2.153,2.153,0,0,0-.223.012,2.108,2.108,0,0,0-1.519.685,1.676,1.676,0,0,0-.408,1.23c0,.011,0,.023,0,.033-.4.457-.786.872-1.142,1.239-.513.529-1.124,1.112-1.814,1.73a23.687,23.687,0,0,1-2.237,1.766,16.359,16.359,0,0,1-2.491,1.432,7.937,7.937,0,0,1-2.58.714c-.189.019-.372.027-.545.027a3.7,3.7,0,0,1-1.189-.176,2.954,2.954,0,0,1-1.209-.755,3.671,3.671,0,0,1-.775-1.282,6.76,6.76,0,0,1-.372-1.709,11.764,11.764,0,0,1,.049-2.408,18.518,18.518,0,0,1,.543-2.742,23.737,23.737,0,0,1,.992-2.866,24.92,24.92,0,0,1,1.37-2.777L10.219,7l.726-.124c.265-.047.539-.092.82-.138,1.269-.182,2.493-.38,3.641-.592a22.342,22.342,0,0,0,3.1-.775A6.369,6.369,0,0,0,20.65,4.227a2.023,2.023,0,0,0,.715-1.8,3.608,3.608,0,0,0-.165-.73,2.155,2.155,0,0,0-.529-.851A2.821,2.821,0,0,0,19.612.2,3.442,3.442,0,0,0,18.45.03c-.193,0-.4.011-.622.031a7.948,7.948,0,0,0-4.218,1.88A17.65,17.65,0,0,0,9.818,6.4c-1.1.186-2.177.39-3.214.609a23.085,23.085,0,0,0-2.936.807,9.57,9.57,0,0,0-2.3,1.146A3.761,3.761,0,0,0-.011,10.624a.3.3,0,0,0-.016.261.28.28,0,0,0,.169.148.259.259,0,0,0,.142.039.152.152,0,0,0,.035,0,.273.273,0,0,0,.245-.206,3.313,3.313,0,0,1,1.2-1.391A8.918,8.918,0,0,1,3.891,8.418a23.061,23.061,0,0,1,2.761-.767c.9-.2,1.82-.368,2.741-.515A23.957,23.957,0,0,0,8.041,9.887a24.523,24.523,0,0,0-1,2.933,20.214,20.214,0,0,0-.561,2.832,12,12,0,0,0-.06,2.534A5.7,5.7,0,0,0,7.76,21.58a3.626,3.626,0,0,0,2.808,1.085c.2,0,.419-.011.638-.031a8.069,8.069,0,0,0,2.165-.52,15.835,15.835,0,0,0,2.068-.992,17.66,17.66,0,0,0,1.9-1.258c.586-.445,1.126-.884,1.608-1.306.516-.461.992-.915,1.416-1.348.38-.388.721-.745,1.015-1.065-.053.211-.1.432-.141.66a1.542,1.542,0,0,0,.187,1.2.937.937,0,0,0,.836.4c.055,0,.113,0,.172-.008a1.964,1.964,0,0,0,1.1-.5,4.13,4.13,0,0,0,.819-.965h.078q.088,0,.18-.008l.355-.035a6.136,6.136,0,0,0,2.362-.746,4.9,4.9,0,0,0,.8-.551c-.043.156-.081.311-.114.468A4.541,4.541,0,0,0,27.9,17.12a1.491,1.491,0,0,0,.251.844.781.781,0,0,0,.309.3.849.849,0,0,0,.44.106c.045,0,.092,0,.14-.007a1.863,1.863,0,0,0,1.222-.634,5.051,5.051,0,0,0,.443-.565,7.079,7.079,0,0,0,.008,1.154,2.517,2.517,0,0,0,.428,1.33l.005.007a.881.881,0,0,0,.668.338c.025,0,.051,0,.076,0a3.137,3.137,0,0,0,1.4-.552,10.745,10.745,0,0,0,1.448-1.158,18.233,18.233,0,0,0,1.38-1.46c.437-.517.831-1.005,1.17-1.449s.621-.835.83-1.156c.11-.172.189-.289.242-.368-.043-.027-.086-.053-.128-.081.035-.053.062-.094.085-.126.043.029.086.055.129.081-.019.025-.045.065-.086.126a4.944,4.944,0,0,0,.676.34,5.4,5.4,0,0,0,.9.282l.015,0a.07.07,0,0,1,.072.06l.009.028.019.024c.007.007.016.045,0,.126-.033.062-.065.128-.1.2a2.008,2.008,0,0,0-.1.283c-.238.561-.465,1.12-.678,1.657s-.4,1.062-.543,1.536a7.108,7.108,0,0,0-.278,1.262,1.3,1.3,0,0,0,.181.924.818.818,0,0,0,.287.258.744.744,0,0,0,.374.109.609.609,0,0,0,.189-.029,6.069,6.069,0,0,0,2.437-2.129c.039-.051.073-.094.105-.134h0a.312.312,0,0,0,.077-.062,11.387,11.387,0,0,0,2.11-3.621c.114-.312.215-.629.3-.949.043-.16.08-.319.122-.479.019-.074.041-.15.064-.223.012-.039.025-.078.04-.117.007-.019.015-.039.021-.059a.016.016,0,0,0,0-.011v-.005a.016.016,0,0,1,0-.007v.005a1.827,1.827,0,0,1,.1-.2c.021-.035.044-.069.066-.1l.011-.015h0l.005-.007a0,0,0,0,1,0,0c.009-.011.019-.023.031-.035a1.654,1.654,0,0,1,.148-.142s0,0,.005-.005h0c.011-.009.021-.016.033-.025.033-.023.066-.045.1-.066.06-.035.12-.066.182-.1l.068-.029h0c.031-.013.062-.025.093-.037.144-.051.289-.094.436-.132.308-.08.622-.144.928-.233a9.028,9.028,0,0,0,1.037-.376,8.563,8.563,0,0,0,1.818-1.064c.549-.422,1.039-.914,1.574-1.352.028-.024.056-.047.085-.069l.04-.033h0a.03.03,0,0,1,.007-.007s.007-.005.007-.007h0c.069-.052.138-.1.209-.152a4.416,4.416,0,0,1,.42-.261c.068-.039.137-.073.207-.105l.057-.027h-.005l.009,0h0c.047-.019.092-.037.138-.053a3.554,3.554,0,0,1,.509-.137l.109-.019h.011c.02,0,.056-.007.066-.007a2.785,2.785,0,0,1,.279-.017c.082,0,.165,0,.247,0l.132.009.066.007.028,0h.007a3.221,3.221,0,0,1,.5.114c.085.027.166.056.247.088h.005l0,0h0l0,0h.005a0,0,0,0,1,0,0,.106.106,0,0,0,.015.007c.04.019.078.036.118.056a3.171,3.171,0,0,1,.4.235l.094.066a.138.138,0,0,0,.023.016,0,0,0,0,0,0,0l0,0,0,0s0,0,0,0l0,0h0l0,0,0,0c.06.051.118.1.176.152a3.47,3.47,0,0,1,.319.336c0,.007.029.037.043.055s0,0,.005.007,0,0,0,0a0,0,0,0,1,0,0c.019.024.036.051.055.074.045.062.086.128.126.194.028.045.055.092.078.138a3.423,3.423,0,0,0-.863.372,4.716,4.716,0,0,0-.851.662.649.649,0,0,0-.251-.209,2.864,2.864,0,0,0-.778-.207,6.34,6.34,0,0,0-.911-.085.342.342,0,0,0,0,.683c.121,0,.242.008.362.017l.18.017.059.007h.007l.055.007a3.983,3.983,0,0,1,.672.149l.043.019a.266.266,0,0,1,0,.045c0,.036-.005.07-.009.106a0,0,0,0,1,0,0s0,.005,0,.007v0c0,.015,0,.029-.005.041-.009.06-.02.118-.032.177h0a1.29,1.29,0,0,0-.126.528,1.908,1.908,0,0,0,.544,1.237l.055.059c.013.537.023,1.073.035,1.609.005.279.027.561.011.84,0,.016,0,.031,0,.045v.02h0v.005h0a.051.051,0,0,0,0,.016l-.012.057a.667.667,0,0,1-.025.084h0v0a0,0,0,0,1,0,0,.343.343,0,0,0-.024.043l-.007.012,0,0c-.007.009-.013.015-.02.023s-.047.04-.055.049a1.891,1.891,0,0,1-.194.113c-.082.043-.164.082-.247.121l-.048.021-.045.02h0a.019.019,0,0,1-.007,0h0l0,0-.017.007-.08.032a5.464,5.464,0,0,1-.541.176c.047-.2.09-.4.133-.6.094-.443.177-.888.25-1.336a9.993,9.993,0,0,0,.15-1.206,1.989,1.989,0,0,0-.894-1.943,5.686,5.686,0,0,0-1.375-.433c-.5-.118-1.005-.219-1.512-.3a.35.35,0,0,0-.42.239.346.346,0,0,0,.238.42c.424.066.844.148,1.262.241.4.09.807.184,1.2.312.04.013.08.028.118.043l.036.015s.007,0,.009,0h0s.007,0,.008.005.007,0,.007,0a2.337,2.337,0,0,1,.219.124h0a0,0,0,0,0,0,0s0,0,0,0a0,0,0,0,1,0,0h0a0,0,0,0,1,0,0l.011.008.051.044c.027.025.051.051.073.076s.019.023.029.032v0a.066.066,0,0,0,.007.009c.021.033.043.064.062.1s.035.066.053.1v.005s0,0,0,0a.01.01,0,0,0,0,.007.035.035,0,0,1,0,.011v0l0,.012a1.771,1.771,0,0,1,.066.227c.007.035.015.07.019.105,0,.007,0,.011,0,.017v.028c.007.088.015.174.015.263a4.28,4.28,0,0,1-.021.488c-.007.062-.013.126-.021.189v0c0,.015-.009.066-.011.081l-.028.181q-.1.636-.222,1.267c-.082.42-.176.839-.277,1.257-.094.386-.186.778-.31,1.156-.015.044-.031.086-.047.13l-.019.047v0a.026.026,0,0,1-.005.011,2.026,2.026,0,0,1-.132.234l0,0-.044.049-.037.036a.177.177,0,0,1-.025.019s0,0-.007,0a.7.7,0,0,1-.086.051.01.01,0,0,0-.008,0c-.025.007-.051.015-.074.02l-.025.005h0l-.064,0a.961.961,0,0,1-.138,0l-.04-.005h-.015L51.2,18.71c-.053-.011-.106-.019-.158-.031-.132-.025-.265-.052-.4-.066,0-.053.009-.106.013-.16.011-.14.02-.279.035-.42,0-.035.007-.066.011-.1a.442.442,0,0,1,.007-.051v-.011c.009-.07.021-.141.035-.21a2.809,2.809,0,0,1,.108-.4l.016-.047a.085.085,0,0,1,.007-.015h0v0h0v0s0,0,0,0h0a.083.083,0,0,1,.007-.015l.02-.043q.044-.092.092-.18c.132-.245.279-.481.388-.738a1.437,1.437,0,0,0,.114-.868,1.614,1.614,0,0,0-.48-.755,16.068,16.068,0,0,0-2.667-2.246c-.118-.078-.235-.157-.355-.231a.346.346,0,0,0-.469.122.351.351,0,0,0,.124.468q.329.207.648.433c.1.072.2.145.3.219.055.04.106.081.161.122l.047.035h0l.005.005.066.051A15.373,15.373,0,0,1,50.056,14.6q.281.269.547.553c.039.04.073.081.108.121l.015.016c-.005-.008-.007-.011-.007-.012h0l0,0a.081.081,0,0,1,.012.017s-.005,0-.009-.008l.011.017c.019.028.036.055.052.082l.019.035c0,.008.017.048.019.055s.009.036.012.055c0,0,.007.066.007.08s0,.037,0,.056v.012c.016-.062,0,.062,0,0a.018.018,0,0,1,0,.011c-.012.052-.023.1-.039.154-.008.023-.016.047-.025.07,0,.005-.019.043-.023.055h0c-.021.049-.045.1-.07.144-.11.215-.242.422-.35.64a4.26,4.26,0,0,0-.354,1.589c-.009.122-.019.247-.031.37,0,.057-.011.113-.016.168,0,.028-.007.057-.011.085v.008c0,.023-.011.076-.012.084a2.727,2.727,0,0,1-.074.34c-.007.023-.016.047-.024.07v.005c.007-.013.011-.019.012-.019s-.019.044-.012.019a.074.074,0,0,0-.007.011c-.015.025-.031.051-.043.076,0,0,0,.007-.007.008h0a0,0,0,0,1,0,0v0h0a.331.331,0,0,1-.031.031s-.007.007-.007.008h0l0,0,0,0h0l0,0a0,0,0,0,1,0,0c-.021.015-.043.025-.062.039a.047.047,0,0,1-.011.007c.048-.011-.047.031,0,0a.1.1,0,0,1-.015,0c-.028.008-.055.019-.082.024s-.039.009-.057.012-.035.005-.051.008h-.009c-.053.005-.105.009-.157.012a5.9,5.9,0,0,1-.719.007c-.053,0-.106-.008-.161-.013h0c-.008,0-.057-.009-.062-.011-.023,0-.043-.007-.062-.011a1.735,1.735,0,0,1-.182-.045c-.031-.008-.06-.019-.09-.028l-.048-.017s0,0,0,0h-.005a1.381,1.381,0,0,1-.225-.128h0l-.011-.008a.007.007,0,0,0,.007,0c-.011-.008-.025-.019-.031-.024s-.039-.035-.056-.053l-.035-.037c-.008-.011-.044-.059-.047-.059h0a.932.932,0,0,1-.07-.113c-.011-.019-.019-.039-.029-.057a.059.059,0,0,0-.009-.019v0a.051.051,0,0,0,0-.013,1.084,1.084,0,0,1-.041-.142c0-.009,0-.015-.005-.024a.052.052,0,0,0,0,.019.257.257,0,0,1-.007-.1.288.288,0,0,1,0-.048v-.015a.016.016,0,0,1,0,.007c0-.007,0-.02.005-.04a.05.05,0,0,0,0,.02c.007-.023.011-.047.019-.069l.008-.025a.011.011,0,0,1,0,.007,0,0,0,0,1,0,0c0-.007.007-.016.013-.029a.117.117,0,0,0-.007.02.4.4,0,0,0,.025-.047c.007-.012.043-.053.043-.055l.016-.017h0l-.011.007.007-.007a.044.044,0,0,1-.035,0,.061.061,0,0,1,.035-.005c.019-.016.015-.011.007,0s0,0,.005,0,0,0-.007,0l.049.005H47.53c.011,0,.078.012.086.013.063.013.125.027.188.043s.132.039.2.06l.074.027.059.024a.007.007,0,0,1,.007,0,3.4,3.4,0,0,1,.363.2c.055.035.105.07.157.109a.047.047,0,0,0,.011.007c-.015-.015.007,0,.015.011h0a.03.03,0,0,0,.007.007l.1.082a.341.341,0,1,0,.483-.483,3.22,3.22,0,0,0-.96-.6c.049-.14.094-.281.144-.42l.055-.15c.009-.024.02-.049.029-.074,0,0,0,0,0-.007V17.4s0-.005,0-.007a2.578,2.578,0,0,1,.133-.255c.02-.035.044-.066.065-.1,0,0,0,0,0-.005l0,0,0,0h0a0,0,0,0,1,0,0s0-.007.007-.008,0,0,0,0,0,0,0,.007c.015-.016.027-.032.041-.048a1.007,1.007,0,0,1,.082-.086l.047-.045s.009-.007.016-.013h0v0a.041.041,0,0,0,.009-.007h0l-.005.005c.011-.009.031-.023.031-.023s.029-.02.043-.028a.742.742,0,0,1,.086-.052h0a.081.081,0,0,1,.029-.009.05.05,0,0,0-.024.008.107.107,0,0,0,.027-.007c.02-.007.04-.013.061-.019l.051-.011.008,0h-.02c.012,0,.06-.011.024,0a.35.35,0,0,0,.342-.342A.344.344,0,0,0,49.252,16a1.509,1.509,0,0,0-1.084.662,22.1,22.1,0,0,1-1.943-1.436.348.348,0,0,0-.484,0,.344.344,0,0,0,0,.483,23.793,23.793,0,0,0,2.112,1.564c-.074.2-.138.408-.21.609a.8.8,0,0,0-.472.061.842.842,0,0,0-.332.332,1.179,1.179,0,0,0-.126.786,1.544,1.544,0,0,0,.9,1.13,3.619,3.619,0,0,0,1.687.2,1.433,1.433,0,0,0,.86-.271,1.268,1.268,0,0,0,.384-.753c0-.025.009-.049.013-.073l.043,0h.036l.08.015.174.033a2.265,2.265,0,0,0,.62.06,1.215,1.215,0,0,0,.984-.685,5.49,5.49,0,0,0,.376-1.153c.013-.049.025-.1.037-.148a.337.337,0,0,0,.322.082,5.824,5.824,0,0,0,1.033-.388,2.023,2.023,0,0,0,.475-.3,1.034,1.034,0,0,0,.283-.475,1.629,1.629,0,0,0,.044-.238c.029.011.059.021.086.033a2.053,2.053,0,0,1,.761.547.346.346,0,0,0,.484,0,.35.35,0,0,0,0-.484,2.8,2.8,0,0,0-1.19-.769.289.289,0,0,0-.138-.011v-.035q-.01-.467-.019-.933l-.008-.422c.08.039.162.072.245.1a2.372,2.372,0,0,0,2.307-.465,2.282,2.282,0,0,0,.4-.453.344.344,0,0,0-.122-.468.352.352,0,0,0-.468.122c-.012.017-.025.035-.037.053h0l0,0c-.029.033-.056.066-.086.1-.062.066-.13.125-.2.187a0,0,0,0,0,0,0l-.056.039c-.031.023-.064.044-.1.064a2.462,2.462,0,0,1-.242.126,0,0,0,0,0,0,0h0a.007.007,0,0,0-.007,0l-.055.02c-.036.013-.073.025-.11.036a2.013,2.013,0,0,1-.254.059h0s-.06.007-.078.007c-.043,0-.086.007-.13.007s-.086,0-.13,0c-.019,0-.037,0-.056,0l-.047-.007H55.8c-.066-.013-.133-.027-.2-.044-.041-.012-.081-.025-.121-.039l-.053-.019-.044-.02a0,0,0,0,1,0,0c-.066-.032-.134-.065-.2-.1-.033-.02-.064-.039-.094-.061l-.047-.032-.027-.019h0a0,0,0,0,0,0,0h0a2.019,2.019,0,0,1-.176-.16c-.027-.027-.052-.055-.076-.082l-.047-.053s-.005-.007-.007-.007h0v0h0s0-.007-.007-.009a1.639,1.639,0,0,1-.128-.2c-.023-.041-.044-.084-.064-.126a.02.02,0,0,0,0-.011v0a.112.112,0,0,1-.005-.016c-.009-.027-.019-.053-.027-.08s-.023-.081-.031-.122v-.005a.027.027,0,0,0,0-.011v-.02c0-.023,0-.044,0-.066,0,0,0-.027,0-.047h0v0c0-.017.008-.049.008-.051,0-.02.011-.039.016-.059s.017-.048.019-.056h0a.068.068,0,0,1,.005-.015c.012-.023.023-.044.037-.066h0a0,0,0,0,1,0,0v0h0v0c.023-.039.048-.077.073-.114,0-.007.013-.017.019-.027l.005-.007h0v0l.025-.031c.033-.04.068-.078.1-.117a5.249,5.249,0,0,1,.4-.388c.035-.031.07-.061.106-.09.019-.017.04-.033.06-.049,0,0,0,0,.007-.005l0,0,.008-.007h0l0,0h0v0c.068-.051.137-.1.206-.145a3.631,3.631,0,0,1,.5-.275.149.149,0,0,0,.024-.011l.008,0a0,0,0,0,0,0,0l0,0h0l.032-.013.114-.041a2.8,2.8,0,0,1,.279-.078c.045-.011.09-.019.134-.027,0,0,.005,0,.007,0h0c.007,0,.012,0,.016,0l.028,0a2.158,2.158,0,0,1,.263-.011c.035,0,.069,0,.1,0l.055.005a.051.051,0,0,1,.015,0h0c.011,0,.047.007.049.007l.052.011.129.029a2.334,2.334,0,0,1,.226.07l.027.011a.011.011,0,0,0,.008,0s0,0,.005,0h0c.039.019.078.036.116.057a1.81,1.81,0,0,1,.2.121.029.029,0,0,0,.011.007l.024.017.008.007c.031.027.06.051.088.077a1.416,1.416,0,0,1,.136.148s.04.055.049.068a1.156,1.156,0,0,1,.066.11c.017.029.031.06.045.09,0,0,.027.07.031.086a1.4,1.4,0,0,1,.04.141c.007.027.011.053.016.08,0,.011.008.055.011.062a2.715,2.715,0,0,1-.007.569c0,.013,0,.028-.005.041v.008c0,.009,0,.021,0,.027-.008.051-.016.1-.025.149-.019.105-.04.207-.064.311-.084.37-.174.738-.267,1.105-.154.61-.322,1.218-.523,1.814-.085.253-.177.505-.277.753-.023.056-.045.11-.066.168a.01.01,0,0,0,0,.007h0l0,.007s0,.007,0,.009,0,.005,0,.007,0,.007-.005.011c-.015.033-.028.066-.043.1-.055.12-.108.239-.165.358a24.334,24.334,0,0,1-1.858,3.1c-.108.161-.218.323-.327.484a.261.261,0,0,0-.044.117,6.7,6.7,0,0,0-.412.577,3.709,3.709,0,0,0-.58,2.011,2.347,2.347,0,0,0,.5,1.548,1.677,1.677,0,0,0,1.351.61,3.329,3.329,0,0,0,2.181-.823,8,8,0,0,0,1.715-2.076,17.379,17.379,0,0,0,1.339-2.866c.383-1.037.721-2.085,1.005-3.114.965-.545,1.906-1.129,2.8-1.735a13.919,13.919,0,0,0,1.286-.989,2.543,2.543,0,0,0-.009.7,2.713,2.713,0,0,0,.13.461,1.484,1.484,0,0,0,.343.516,1.762,1.762,0,0,0,.642.391,2.935,2.935,0,0,0,1.011.148,5.582,5.582,0,0,0,2.3-.491,10.441,10.441,0,0,0,1.911-1.1,11.925,11.925,0,0,0,1.344-1.126,6.014,6.014,0,0,0,.554-.586.3.3,0,0,0,.09-.225.278.278,0,0,0-.113-.2Zm-6.28-.439a1.488,1.488,0,0,1,.871-.251.781.781,0,0,1,.556.187.318.318,0,0,1-.076.416,1.391,1.391,0,0,1-.363.25,1.225,1.225,0,0,1-.549.106,3.3,3.3,0,0,1-1.009-.2,3.156,3.156,0,0,1,.57-.515ZM14.089,2.38A7.351,7.351,0,0,1,17.894.7c.2-.019.38-.027.552-.027a3.052,3.052,0,0,1,.886.113,2.369,2.369,0,0,1,.858.441,1.4,1.4,0,0,1,.423.605,2.912,2.912,0,0,1,.149.648A1.441,1.441,0,0,1,20.15,3.8a6.545,6.545,0,0,1-2,1,21.179,21.179,0,0,1-2.964.726c-1.145.2-2.33.4-3.526.6-.217.04-.439.07-.66.092-.114.011-.23.024-.346.041a16.244,16.244,0,0,1,3.432-3.88Zm9.069,15.164a1.507,1.507,0,0,1-.771.352.571.571,0,0,1-.545-.2,1.2,1.2,0,0,1-.121-.794,3.781,3.781,0,0,1,.166-.832,2.669,2.669,0,0,0,1.4.735,3.411,3.411,0,0,0,.536.105,4.651,4.651,0,0,1-.665.632Zm-.207-1.388a1.671,1.671,0,0,1-.88-.645,2.276,2.276,0,0,1,.16-.433c.061-.118.108-.221.142-.307a.16.16,0,0,0-.085-.239c-.106-.031-.176,0-.209.082A.85.85,0,0,1,22,14.76a.886.886,0,0,0-.1.242,1.16,1.16,0,0,1,.039-.406,1.084,1.084,0,0,1,.223-.424,1.455,1.455,0,0,1,.463-.352,2.091,2.091,0,0,1,.755-.2.913.913,0,0,1,1.138.915,2.649,2.649,0,0,1-.086.891,4.3,4.3,0,0,1-.36.947,3.641,3.641,0,0,1-1.12-.219ZM38.22,12.917a2.391,2.391,0,0,1-.4-.493,1.817,1.817,0,0,1-.243-.763c-.078-.835.29-.964.41-1.008l.016-.005.013-.009a.34.34,0,0,1,.117-.027.5.5,0,0,1,.062,0,.522.522,0,0,1,.416.2,1.039,1.039,0,0,1,.128.219.828.828,0,0,1,.045.384,2.8,2.8,0,0,1-.156.69,3.874,3.874,0,0,1-.414.812Zm21.991,6.844a16.169,16.169,0,0,1-1.223,2.616,7.176,7.176,0,0,1-1.525,1.859,2.768,2.768,0,0,1-1.816.69,1.05,1.05,0,0,1-.87-.406,1.731,1.731,0,0,1-.336-1.109,3.155,3.155,0,0,1,.516-1.739,5.7,5.7,0,0,1,.4-.547h0c.02-.025.04-.049.063-.073l.007-.008v0a7.744,7.744,0,0,1,.948-.924,16.446,16.446,0,0,1,2.049-1.437c.766-.46,1.569-.92,2.392-1.375.086-.051.172-.1.258-.149-.259.878-.549,1.754-.863,2.606Zm1.15-5.183a1.486,1.486,0,0,1-1.229.561.549.549,0,0,1-.46-.312,1.285,1.285,0,0,1-.11-.634v-.013a1.538,1.538,0,0,1,.114-.548,1.606,1.606,0,0,1,.338-.537,1.992,1.992,0,0,1,.589-.416,1.964,1.964,0,0,1,.844-.17.752.752,0,0,1,.564.164l.007.009a.307.307,0,0,1,.1.158,1.565,1.565,0,0,1,.013.166,1.6,1.6,0,0,1-.055.267,4.257,4.257,0,0,1-.714,1.306Z" transform="translate(0.049 -0.03)" fill="#212870"/>
    </g>
  </g>
</svg>
