<svg xmlns="http://www.w3.org/2000/svg" width="90.898" height="96.672" viewBox="0 0 90.898 96.672">
  <g transform="translate(45.449 48.336)">
    <g transform="translate(-45.449 -48.336)">
      <g>
        <g>
          <g>
            <path d="M130.365,345.713c-1.128.685-2.086,1.294-2.942,1.9l-.909-1.552,1.845-1.2-.047-.08a3.319,3.319,0,0,1-3.68-1.427,2.231,2.231,0,0,1-.236-.539l1.643-1a3.113,3.113,0,0,0,.295.641,2.816,2.816,0,0,0,3.629,1.02,5.7,5.7,0,0,0,.859-.412l5.107-3.1,1.027,1.754Z" transform="translate(-114.811 -275.854)" fill="#3d53ea"/>
            <path d="M123.663,296.51l-1.309.546.019.068a4.2,4.2,0,0,1,2.523,2.884,3.244,3.244,0,0,1-2.157,4.227c-2.6.745-4.665-1.2-5.812-5.425l-.222.063a2.341,2.341,0,0,0-1.8,3.2,5.678,5.678,0,0,0,1.586,2.616l-1.161.821a7.075,7.075,0,0,1-1.948-3.317c-.926-3.342,1.089-4.8,3.241-5.416l4.015-1.153a15.512,15.512,0,0,0,2.523-.919Zm-5.4,1.866c.556,2.18,1.615,4.534,3.7,3.935a1.831,1.831,0,0,0,1.344-2.409,2.786,2.786,0,0,0-2.529-2.126,2.064,2.064,0,0,0-.652.066Z" transform="translate(-106.446 -242.396)" fill="#3d53ea"/>
            <path d="M103.658,269.815l-9.607.216.035,1.6-1.544.035-.035-1.6-.53.012a5.2,5.2,0,0,1-3.922-1.225,3.988,3.988,0,0,1-1.1-2.745,4.863,4.863,0,0,1,.284-1.766l1.573.246a3.134,3.134,0,0,0-.225,1.32c.038,1.759,1.569,2.171,3.273,2.132l.6-.013-.06-2.745,1.544-.035.059,2.745,9.607-.217Z" transform="translate(-86.957 -219.95)" fill="#3d53ea"/>
            <path d="M113.08,239.873c-1.292-.24-2.407-.422-3.44-.542l.318-1.777,2.166.33.016-.092a3.422,3.422,0,0,1-1.849-3.539,2.256,2.256,0,0,1,.171-.564l1.881.349a3.19,3.19,0,0,0-.192.68,2.9,2.9,0,0,0,2.075,3.2,5.614,5.614,0,0,0,.913.265l5.849,1.085-.359,2.008Z" transform="translate(-103.832 -197.287)" fill="#3d53ea"/>
            <path d="M132.449,201.491l-1.339-.466-.03.064a4.3,4.3,0,0,1,.036,3.862,3.156,3.156,0,0,1-4.357,1.738c-2.436-1.178-2.74-4.026-.871-7.98l-.208-.1a2.282,2.282,0,0,0-3.419,1.2,5.747,5.747,0,0,0-.5,3.033l-1.405-.16a7.166,7.166,0,0,1,.677-3.8c1.463-3.137,3.922-2.884,5.941-1.907l3.769,1.822a15.533,15.533,0,0,0,2.494,1Zm-5.271-2.21c-.99,2.015-1.715,4.5.243,5.442a1.783,1.783,0,0,0,2.569-.914,2.863,2.863,0,0,0-.53-3.3,2.114,2.114,0,0,0-.534-.388Z" transform="translate(-111.774 -169.662)" fill="#3d53ea"/>
            <path d="M129.7,158.727l3.954.352-.983,1.242-2.543-.34-.029.037.866,2.458-.94,1.187-1.206-3.823Zm11.363,11.557-8.684-7.128,1.273-1.607,8.683,7.128Z" transform="translate(-118.099 -141.868)" fill="#3d53ea"/>
            <path d="M178.118,144.972a7.579,7.579,0,0,1-2.108,2.542c-2.636,2.128-5.769,1.694-7.888-1.026a5.836,5.836,0,0,1,1.013-8.514,6.726,6.726,0,0,1,2.56-1.32l.613,1.541a4.665,4.665,0,0,0-2.171,1.065c-2,1.618-1.912,4-.466,5.857,1.6,2.058,3.892,2.277,5.625.877a5.842,5.842,0,0,0,1.606-2.016Z" transform="translate(-146.302 -125.549)" fill="#3d53ea"/>
            <path d="M194.972,105.2l1.911-.689,2.324,6.679.044-.015a3.86,3.86,0,0,1,.891-1.865,4.18,4.18,0,0,1,1.763-1.258c1.412-.509,3.979-.439,5.264,3.254l2.216,6.37-1.911.69-2.139-6.149c-.6-1.725-1.738-2.957-3.541-2.307a2.967,2.967,0,0,0-1.887,2.87,2.547,2.547,0,0,0,.193.976l2.247,6.458-1.911.69Z" transform="translate(-167.315 -101.783)" fill="#3d53ea"/>
            <path d="M257.553,95.241a1.256,1.256,0,1,1-2.5.21,1.251,1.251,0,0,1,1.159-1.392A1.211,1.211,0,0,1,257.553,95.241Zm-1.076,14.685-.917-11.316,2.021-.17.917,11.316Z" transform="translate(-212.006 -94.054)" fill="#3d53ea"/>
            <path d="M276.644,120.009a5.271,5.271,0,0,0,2.554,1.149c1.464.185,2.24-.474,2.354-1.405.119-.978-.388-1.585-1.806-2.332-1.9-.973-2.7-2.209-2.539-3.559.22-1.816,1.842-3.125,4.221-2.825a5.512,5.512,0,0,1,2.637,1.042l-.684,1.427a4.3,4.3,0,0,0-2.185-.937,1.629,1.629,0,0,0-2.039,1.3c-.113.931.5,1.434,1.872,2.174,1.831.987,2.7,2.089,2.491,3.765-.241,1.979-1.92,3.186-4.55,2.855a6.3,6.3,0,0,1-3.017-1.161Z" transform="translate(-227.559 -106.578)" fill="#3d53ea"/>
            <path d="M309.2,128.863a5.338,5.338,0,0,0,2.177,1.78c1.368.562,2.285.129,2.63-.742.362-.913.026-1.633-1.156-2.726-1.592-1.438-2.055-2.843-1.554-4.1.672-1.7,2.57-2.536,4.793-1.624a5.578,5.578,0,0,1,2.285,1.7l-1.022,1.2a4.356,4.356,0,0,0-1.874-1.478,1.616,1.616,0,0,0-2.3.725c-.345.87.12,1.517,1.259,2.592,1.519,1.434,2.076,2.725,1.455,4.292-.733,1.849-2.661,2.576-5.118,1.566a6.371,6.371,0,0,1-2.622-1.912Z" transform="translate(-251.515 -114.029)" fill="#3d53ea"/>
            <path d="M347.158,146.926a3.678,3.678,0,0,0,.526,5.515,7.29,7.29,0,0,0,2.759,1.528l-.647,1.369a8.98,8.98,0,0,1-3.315-1.837c-2.664-2.2-2.831-5.306-.709-7.964s5.332-3.479,7.853-1.392c2.825,2.338,1.556,5.49.262,7.11a7.7,7.7,0,0,1-.65.7Zm5.529,2.671c.831-1,1.667-2.944-.1-4.409-1.591-1.316-3.481-.4-4.492.606Z" transform="translate(-278.419 -130.216)" fill="#3d53ea"/>
            <path d="M378.592,177.011c1.035-.516,1.873-.961,2.67-1.437l.781,1.622-1.574.889.031.063a3.841,3.841,0,0,1,3.383,2.284,3.4,3.4,0,0,1-.618,3.887l.021.042a4.541,4.541,0,0,1,1.851.487,3.845,3.845,0,0,1,1.788,1.9c.649,1.349.743,3.784-2.733,5.518l-5.9,2.942-.872-1.812,5.67-2.828c1.924-.96,2.739-2.254,2.019-3.75a2.611,2.611,0,0,0-2.71-1.365,3.3,3.3,0,0,0-.981.307l-6.187,3.087-.872-1.812,6-2.994c1.593-.795,2.407-2.089,1.728-3.5a2.987,2.987,0,0,0-3.887-1.092l-6.043,3.014-.872-1.812Z" transform="translate(-298.485 -154.323)" fill="#3d53ea"/>
            <path d="M401.9,257.119a3.61,3.61,0,0,0-3.8,3.966,7.579,7.579,0,0,0,.633,3.132l-1.445.379a9.331,9.331,0,0,1-.76-3.764,5.228,5.228,0,0,1,5.521-5.688c3.364-.063,6.05,1.9,6.109,5.212.067,3.706-3.117,4.751-5.168,4.79a7.507,7.507,0,0,1-.946-.053Zm1.561,6.025c1.29,0,3.285-.6,3.243-2.924-.037-2.088-1.943-2.967-3.352-3.1Z" transform="translate(-317.262 -213.149)" fill="#3d53ea"/>
            <path d="M395.648,301.658c1.091.377,1.993.664,2.888.9l-.578,1.733-1.783-.493-.015.044a4.231,4.231,0,0,1,.8,4.241c-.5,1.488-2.14,3.5-5.762,2.244l-6.306-2.181.652-1.955,6.088,2.106c1.7.588,3.335.435,3.95-1.409a2.962,2.962,0,0,0-1.089-3.3,2.894,2.894,0,0,0-.85-.443l-6.35-2.2.652-1.955Z" transform="translate(-308.605 -245.569)" fill="#3d53ea"/>
            <path d="M381.345,355.325l-2.614-1.885-1.679,2.412-1.26-.909,1.678-2.413-4.908-3.54c-1.129-.814-1.994-.949-2.647-.011a4.617,4.617,0,0,0-.567,1.058l-1.294-.819a5.094,5.094,0,0,1,.813-1.656,2.808,2.808,0,0,1,1.962-1.317,4.089,4.089,0,0,1,2.823,1.058l4.965,3.581,1-1.436,1.26.909-1,1.436,2.181,1.573Z" transform="translate(-296.079 -280.486)" fill="#3d53ea"/>
          </g>
        </g>
        <g transform="translate(21.878 20.985)">
          <ellipse cx="26.21" cy="26.685" rx="26.21" ry="26.685" fill="#3d53ea"/>
        </g>
      </g>
      <text transform="translate(19.072 92.672)" fill="#3d53ea" font-size="16" font-family="FjallaOne, sans-serif">Matinée</text>
    </g>
  </g>
</svg>
